HIERARCHY
ROOT Hips
{
	OFFSET 0.000000 0.000000 0.000000 
	CHANNELS 6 Xposition Yposition Zposition Zrotation Xrotation Yrotation
	JOINT Spine
	{
		OFFSET -0.000000 8.061080 0.000000 
		CHANNELS 3 Zrotation Xrotation Yrotation
		JOINT Spine1
		{
			OFFSET -0.000000 20.532700 0.000000 
			CHANNELS 3 Zrotation Xrotation Yrotation
			JOINT Neck
			{
				OFFSET -0.000000 22.498800 0.000000 
				CHANNELS 3 Zrotation Xrotation Yrotation
				JOINT Head
				{
					OFFSET -0.000000 15.237400 1.966120 
					CHANNELS 3 Zrotation Xrotation Yrotation
					End Site
					{
						OFFSET -0.000000 19.661222 0.000000 
					}
				}
			}
			JOINT LeftShoulder
			{
				OFFSET 3.894670 16.042299 -0.398189 
				CHANNELS 3 Zrotation Xrotation Yrotation
				JOINT LeftArm
				{
					OFFSET 19.709600 0.000000 0.000000 
					CHANNELS 3 Zrotation Xrotation Yrotation
					JOINT LeftForeArm
					{
						OFFSET 25.566900 0.000000 0.000000 
						CHANNELS 3 Zrotation Xrotation Yrotation
						JOINT LeftHand
						{
							OFFSET 25.401899 0.000000 0.000000 
							CHANNELS 3 Zrotation Xrotation Yrotation
							End Site
							{
								OFFSET 14.745918 0.000000 0.000000 
							}
						}
					}
				}
			}
			JOINT RightShoulder
			{
				OFFSET -3.930780 16.042299 -0.398189 
				CHANNELS 3 Zrotation Xrotation Yrotation
				JOINT RightArm
				{
					OFFSET -19.709600 0.000000 0.000000 
					CHANNELS 3 Zrotation Xrotation Yrotation
					JOINT RightForeArm
					{
						OFFSET -25.566900 0.000000 0.000000 
						CHANNELS 3 Zrotation Xrotation Yrotation
						JOINT RightHand
						{
							OFFSET -25.401899 0.000000 0.000000 
							CHANNELS 3 Zrotation Xrotation Yrotation
							End Site
							{
								OFFSET -14.745918 0.000000 0.000000 
							}
						}
					}
				}
			}
		}
	}
	JOINT LeftUpLeg
	{
		OFFSET 9.830590 0.000000 0.000000 
		CHANNELS 3 Zrotation Xrotation Yrotation
		JOINT LeftLeg
		{
			OFFSET -0.000000 -46.474800 0.000000 
			CHANNELS 3 Zrotation Xrotation Yrotation
			JOINT LeftFoot
			{
				OFFSET -0.000000 -30.290499 0.000000 
				CHANNELS 3 Zrotation Xrotation Yrotation
				JOINT LeftToeBase
				{
					OFFSET -0.000000 -6.389880 14.745900 
					CHANNELS 3 Zrotation Xrotation Yrotation
					End Site
					{
						OFFSET -0.000000 0.000000 3.932244 
					}
				}
			}
		}
	}
	JOINT RightUpLeg
	{
		OFFSET -9.830590 0.000000 0.000000 
		CHANNELS 3 Zrotation Xrotation Yrotation
		JOINT RightLeg
		{
			OFFSET -0.000000 -46.474800 0.000000 
			CHANNELS 3 Zrotation Xrotation Yrotation
			JOINT RightFoot
			{
				OFFSET -0.000000 -30.290499 0.000000 
				CHANNELS 3 Zrotation Xrotation Yrotation
				JOINT RightToeBase
				{
					OFFSET -0.000000 -6.389880 14.745900 
					CHANNELS 3 Zrotation Xrotation Yrotation
					End Site
					{
						OFFSET -0.000000 0.000000 3.932244 
					}
				}
			}
		}
	}
}
MOTION
Frames: 10
Frame Time: 0.010000
18.609684 84.142754 36.679279 -7.642120 9.136438 36.172203 1.083511 -12.115315 -1.238101 2.998847 6.682434 -0.630033 1.305156 4.791383 3.001714 2.242311 16.890232 2.718626 7.627636 7.433110 -6.169998 -70.630386 32.329483 -28.698441 -10.132395 -7.293930 -6.324529 5.911072 -8.004023 -3.005992 -10.953712 8.977099 -8.729705 52.743252 53.047642 42.482437 4.941799 -10.220813 6.046313 9.656026 -10.544223 -0.804670 6.630291 -14.412020 -7.078939 0.139446 13.072806 1.223313 -6.950958 -7.282242 -11.278685 0.000000 0.000000 0.000000 -8.351138 -17.104305 -6.490924 1.779672 12.249563 -0.933996 8.502110 -10.466043 -14.816830 0.000000 0.000000 0.000000 
18.773245 84.173256 37.237610 -7.621584 9.148201 36.395061 1.110428 -12.104531 -1.037336 2.967909 6.672285 -0.561885 1.275504 4.798260 2.911213 2.319446 16.896759 2.598884 7.663934 7.729373 -5.937727 -70.892593 32.196732 -28.458246 -10.163877 -7.374493 -6.308945 5.631516 -8.027635 -1.981892 -10.966332 8.865588 -8.637592 52.532867 52.941963 42.583084 4.923231 -10.244651 6.125969 9.573366 -10.565389 -0.750233 6.538395 -14.944239 -7.064565 0.103463 13.655379 1.314012 -6.634929 -7.371547 -10.857574 0.000000 0.000000 0.000000 -8.298815 -16.698059 -6.638626 1.774609 12.343915 -0.948342 8.502110 -10.466043 -14.816830 0.000000 0.000000 0.000000 
18.944500 84.202293 37.793098 -7.598606 9.160285 36.610779 1.136719 -12.094613 -0.834756 2.933332 6.663205 -0.493040 1.245854 4.806767 2.822457 2.393171 16.903728 2.481887 7.697712 8.028025 -5.703768 -71.139450 32.062847 -28.218824 -10.190786 -7.442905 -6.296455 5.375996 -8.045451 -0.982354 -10.977843 8.755232 -8.546544 52.311268 52.839516 42.688267 4.902425 -10.272280 6.207624 9.496765 -10.590240 -0.693843 6.437933 -15.466775 -7.049040 0.074402 14.202959 1.400910 -6.321128 -7.430182 -10.434905 0.000000 0.000000 0.000000 -8.250514 -16.296988 -6.802952 1.758651 12.401802 -0.960691 8.502110 -10.466043 -14.816830 0.000000 0.000000 0.000000 
19.123674 84.229782 38.345657 -7.573258 9.172729 36.819183 1.162296 -12.085558 -0.630915 2.895198 6.655159 -0.423471 1.216313 4.816535 2.735599 2.463279 16.911493 2.367847 7.728853 8.328509 -5.468432 -71.370773 31.927645 -27.980501 -10.213598 -7.498931 -6.286765 5.142811 -8.056561 -0.009876 -10.988164 8.646163 -8.456822 52.078678 52.740650 42.797855 4.879465 -10.303752 6.291183 9.426328 -10.618805 -0.635577 6.329139 -15.978118 -7.031737 0.052689 14.713779 1.483447 -6.010776 -7.459086 -10.012314 0.000000 0.000000 0.000000 -8.201126 -15.897696 -6.967083 1.750335 12.330941 -0.953274 8.502110 -10.466043 -14.816830 0.000000 0.000000 0.000000 
19.310991 84.255661 38.895237 -7.545641 9.185508 37.020153 1.187147 -12.077431 -0.426198 2.853647 6.648117 -0.353349 1.186891 4.827751 2.650819 2.529766 16.919884 2.256912 7.757236 8.630160 -5.232183 -71.586578 31.791370 -27.743689 -10.232217 -7.542747 -6.279119 4.930031 -8.060465 0.933010 -10.997295 8.538687 -8.368580 51.835686 52.645683 42.911716 4.853990 -10.339100 6.376101 9.362342 -10.651082 -0.575310 6.212384 -16.476736 -7.012562 0.038418 15.186213 1.561130 -5.704535 -7.459304 -9.590691 0.000000 0.000000 0.000000 -8.133770 -15.501006 -7.020519 2.561018 12.730585 -0.786468 8.502110 -10.466043 -14.816830 0.000000 0.000000 0.000000 
19.506647 84.279877 39.441792 -7.515839 9.198631 37.213531 1.211132 -12.070321 -0.220671 2.808907 6.642058 -0.283143 1.157585 4.840481 2.568250 2.592569 16.928688 2.149287 7.782917 8.932414 -4.995411 -71.786980 31.653915 -27.508749 -10.247123 -7.574450 -6.273179 4.736181 -8.056666 1.844262 -11.005366 8.432988 -8.282000 51.582737 52.555054 43.029778 4.826078 -10.378414 6.462231 9.304865 -10.687155 -0.513036 6.088131 -16.961288 -6.991418 0.031341 15.619090 1.633573 -5.403001 -7.432293 -9.170916 0.000000 0.000000 0.000000 -8.086463 -15.103203 -7.274161 2.674013 13.032013 -0.799392 8.502110 -10.466043 -14.816830 0.000000 0.000000 0.000000 
19.710844 84.302345 39.985283 -7.483896 9.212090 37.399178 1.234102 -12.064272 -0.015053 2.761198 6.636981 -0.212665 1.128477 4.854617 2.487990 2.651505 16.937958 2.045136 7.805852 9.234633 -4.758537 -71.972054 31.515675 -27.276308 -10.258366 -7.594507 -6.268132 4.559430 -8.045091 2.721822 -11.012446 8.329356 -8.197329 51.320492 52.468815 43.151779 4.795829 -10.421609 6.549431 9.253886 -10.726883 -0.448798 5.956686 -17.430426 -6.968193 0.031416 16.011429 1.700408 -5.106599 -7.379622 -8.753655 0.000000 0.000000 0.000000 -8.078184 -14.708475 -7.413443 1.858811 12.684220 -0.972074 8.502110 -10.466043 -14.816830 0.000000 0.000000 0.000000 
19.923763 84.323044 40.525696 -7.449972 9.225899 37.576996 1.256018 -12.059328 0.188073 2.710423 6.632863 -0.139878 1.099423 4.870109 2.410254 2.706875 16.947838 1.944553 7.825944 9.536246 -4.521968 -72.142120 31.376568 -27.046562 -10.265956 -7.603252 -6.263579 4.398124 -8.025584 3.564086 -11.018512 8.227954 -8.114659 51.049595 52.387344 43.277500 4.763072 -10.468678 6.637271 9.209533 -10.770247 -0.382638 5.818578 -17.883032 -6.942709 0.038352 16.362635 1.761370 -4.815835 -7.303121 -8.339762 0.000000 0.000000 0.000000 -8.042912 -14.316862 -7.563561 1.884322 12.813220 -0.982978 8.502110 -10.466043 -14.816830 0.000000 0.000000 0.000000 
20.145576 84.341934 41.063023 -7.414131 9.240043 37.746826 1.276765 -12.055596 0.393707 2.657402 6.629454 -0.070305 1.070623 4.887012 2.335123 2.758360 16.958160 1.847745 7.843368 9.836662 -4.286072 -72.297447 31.236982 -26.820162 -10.270102 -7.601315 -6.258835 4.250754 -7.998354 4.369680 -11.023655 8.129075 -8.034245 50.770531 52.310978 43.407024 4.727793 -10.519670 6.725448 9.171816 -10.817275 -0.314475 5.674164 -18.317984 -6.914845 0.051958 16.672218 1.816218 -4.530916 -7.204299 -7.929617 0.000000 0.000000 0.000000 -8.009416 -13.921395 -7.643137 1.916431 12.946411 -0.992751 8.502110 -10.466043 -14.816830 0.000000 0.000000 0.000000 
20.376436 84.358978 41.597267 -7.376468 9.254480 37.908615 1.296226 -12.053031 0.597479 2.601938 6.626866 -0.000137 1.042026 4.905028 2.262746 2.806010 16.969215 1.754828 7.858001 10.135242 -4.051184 -72.438484 31.096817 -26.597227 -10.270956 -7.589110 -6.253708 4.116013 -7.963467 5.137596 -11.027944 8.032804 -7.956226 50.484154 52.239986 43.540012 4.689984 -10.574503 6.813646 9.140733 -10.867828 -0.244405 5.523913 -18.734322 -6.884466 0.071881 16.940180 1.864826 -4.252173 -7.085207 -7.523908 0.000000 0.000000 0.000000 -7.978213 -13.518496 -7.607639 1.924744 13.038890 -1.003376 8.502110 -10.466043 -14.816830 0.000000 0.000000 0.000000 
